<svg xmlns="http://www.w3.org/2000/svg" viewBox="0 0 48 48"><path fill="#006B3A" fill-rule="evenodd" d="M10.09,10.24 10.08,10.15 10.07,10.06 10.06,9.97 10.05,9.88 10.03,9.80 10.01,9.71 9.99,9.63 9.97,9.54 9.94,9.45 9.92,9.37 9.89,9.29 9.86,9.20 9.83,9.12 9.79,9.04 9.75,8.96 9.72,8.88 9.67,8.80 9.63,8.73 9.59,8.65 9.54,8.57 9.49,8.50 9.44,8.43 9.39,8.36 9.34,8.29 9.28,8.22 9.23,8.15 9.17,8.08 9.11,8.02 9.05,7.95 8.98,7.89 8.92,7.83 8.85,7.77 8.78,7.72 8.71,7.66 8.64,7.61 8.57,7.56 8.50,7.51 8.43,7.46 8.35,7.41 8.27,7.37 8.20,7.33 8.12,7.28 8.04,7.25 7.96,7.21 7.88,7.17 7.80,7.14 7.71,7.11 7.63,7.08 7.55,7.06 7.46,7.03 7.37,7.01 7.29,6.99 7.20,6.97 7.12,6.95 7.03,6.94 6.94,6.93 6.85,6.92 6.76,6.91 6.68,6.90 6.59,6.90 6.50,6.90 6.41,6.90 6.32,6.90 6.24,6.91 6.15,6.92 6.06,6.93 5.97,6.94 5.88,6.95 5.80,6.97 5.71,6.99 5.63,7.01 5.54,7.03 5.45,7.06 5.37,7.08 5.29,7.11 5.20,7.14 5.12,7.17 5.04,7.21 4.96,7.25 4.88,7.28 4.80,7.33 4.73,7.37 4.65,7.41 4.57,7.46 4.50,7.51 4.43,7.56 4.36,7.61 4.29,7.66 4.22,7.72 4.15,7.77 4.08,7.83 4.02,7.89 3.95,7.95 3.89,8.02 3.83,8.08 3.77,8.15 3.72,8.22 3.66,8.29 3.61,8.36 3.56,8.43 3.51,8.50 3.46,8.57 3.41,8.65 3.37,8.73 3.33,8.80 3.28,8.88 3.25,8.96 3.21,9.04 3.17,9.12 3.14,9.20 3.11,9.29 3.08,9.37 3.06,9.45 3.03,9.54 3.01,9.63 2.99,9.71 2.97,9.80 2.95,9.88 2.94,9.97 2.93,10.06 2.92,10.15 2.91,10.24 2.90,10.32 2.90,10.41 2.90,10.50 2.90,10.59 2.90,10.68 2.91,10.76 2.92,10.85 2.93,10.94 2.94,11.03 2.95,11.12 2.97,11.20 2.99,11.29 3.01,11.37 3.03,11.46 3.06,11.55 3.08,11.63 3.11,11.71 3.14,11.80 3.17,11.88 3.21,11.96 3.25,12.04 3.28,12.12 3.33,12.20 3.37,12.27 3.41,12.35 3.46,12.43 3.51,12.50 3.56,12.57 3.61,12.64 3.66,12.71 3.72,12.78 3.77,12.85 3.83,12.92 3.89,12.98 3.95,13.05 4.02,13.11 4.08,13.17 4.15,13.23 4.22,13.28 4.29,13.34 4.36,13.39 4.43,13.44 4.50,13.49 4.57,13.54 4.65,13.59 4.73,13.63 4.80,13.67 4.88,13.72 4.96,13.75 5.04,13.79 5.12,13.83 5.20,13.86 5.29,13.89 5.37,13.92 5.45,13.94 5.54,13.97 5.63,13.99 5.71,14.01 5.80,14.03 5.88,14.05 5.97,14.06 6.06,14.07 6.15,14.08 6.24,14.09 6.32,14.10 6.41,14.10 6.50,14.10 6.59,14.10 6.68,14.10 6.76,14.09 6.85,14.08 6.94,14.07 7.03,14.06 7.12,14.05 7.20,14.03 7.29,14.01 7.37,13.99 7.46,13.97 7.55,13.94 7.63,13.92 7.71,13.89 7.80,13.86 7.88,13.83 7.96,13.79 8.04,13.75 8.12,13.72 8.20,13.67 8.27,13.63 8.35,13.59 8.43,13.54 8.50,13.49 8.57,13.44 8.64,13.39 8.71,13.34 8.78,13.28 8.85,13.23 8.92,13.17 8.98,13.11 9.05,13.05 9.11,12.98 9.17,12.92 9.23,12.85 9.28,12.78 9.34,12.71 9.39,12.64 9.44,12.57 9.49,12.50 9.54,12.43 9.59,12.35 9.63,12.27 9.67,12.20 9.72,12.12 9.75,12.04 9.79,11.96 9.83,11.88 9.86,11.80 9.89,11.71 9.92,11.63 9.94,11.55 9.97,11.46 9.99,11.37 10.01,11.29 10.03,11.20 10.05,11.12 10.06,11.03 10.07,10.94 10.08,10.85 10.09,10.76 10.10,10.68 10.10,10.59 10.10,10.50 10.10,10.41 10.10,10.32ZM45.09,10.24 45.08,10.15 45.07,10.06 45.06,9.97 45.05,9.88 45.03,9.80 45.01,9.71 44.99,9.63 44.97,9.54 44.94,9.45 44.92,9.37 44.89,9.29 44.86,9.20 44.83,9.12 44.79,9.04 44.75,8.96 44.72,8.88 44.67,8.80 44.63,8.73 44.59,8.65 44.54,8.57 44.49,8.50 44.44,8.43 44.39,8.36 44.34,8.29 44.28,8.22 44.23,8.15 44.17,8.08 44.11,8.02 44.05,7.95 43.98,7.89 43.92,7.83 43.85,7.77 43.78,7.72 43.71,7.66 43.64,7.61 43.57,7.56 43.50,7.51 43.43,7.46 43.35,7.41 43.27,7.37 43.20,7.33 43.12,7.28 43.04,7.25 42.96,7.21 42.88,7.17 42.80,7.14 42.71,7.11 42.63,7.08 42.55,7.06 42.46,7.03 42.37,7.01 42.29,6.99 42.20,6.97 42.12,6.95 42.03,6.94 41.94,6.93 41.85,6.92 41.76,6.91 41.68,6.90 41.59,6.90 41.50,6.90 41.41,6.90 41.32,6.90 41.24,6.91 41.15,6.92 41.06,6.93 40.97,6.94 40.88,6.95 40.80,6.97 40.71,6.99 40.63,7.01 40.54,7.03 40.45,7.06 40.37,7.08 40.29,7.11 40.20,7.14 40.12,7.17 40.04,7.21 39.96,7.25 39.88,7.28 39.80,7.33 39.73,7.37 39.65,7.41 39.57,7.46 39.50,7.51 39.43,7.56 39.36,7.61 39.29,7.66 39.22,7.72 39.15,7.77 39.08,7.83 39.02,7.89 38.95,7.95 38.89,8.02 38.83,8.08 38.77,8.15 38.72,8.22 38.66,8.29 38.61,8.36 38.56,8.43 38.51,8.50 38.46,8.57 38.41,8.65 38.37,8.73 38.33,8.80 38.28,8.88 38.25,8.96 38.21,9.04 38.17,9.12 38.14,9.20 38.11,9.29 38.08,9.37 38.06,9.45 38.03,9.54 38.01,9.63 37.99,9.71 37.97,9.80 37.95,9.88 37.94,9.97 37.93,10.06 37.92,10.15 37.91,10.24 37.90,10.32 37.90,10.41 37.90,10.50 37.90,10.59 37.90,10.68 37.91,10.76 37.92,10.85 37.93,10.94 37.94,11.03 37.95,11.12 37.97,11.20 37.99,11.29 38.01,11.37 38.03,11.46 38.06,11.55 38.08,11.63 38.11,11.71 38.14,11.80 38.17,11.88 38.21,11.96 38.25,12.04 38.28,12.12 38.33,12.20 38.37,12.27 38.41,12.35 38.46,12.43 38.51,12.50 38.56,12.57 38.61,12.64 38.66,12.71 38.72,12.78 38.77,12.85 38.83,12.92 38.89,12.98 38.95,13.05 39.02,13.11 39.08,13.17 39.15,13.23 39.22,13.28 39.29,13.34 39.36,13.39 39.43,13.44 39.50,13.49 39.57,13.54 39.65,13.59 39.73,13.63 39.80,13.67 39.88,13.72 39.96,13.75 40.04,13.79 40.12,13.83 40.20,13.86 40.29,13.89 40.37,13.92 40.45,13.94 40.54,13.97 40.63,13.99 40.71,14.01 40.80,14.03 40.88,14.05 40.97,14.06 41.06,14.07 41.15,14.08 41.24,14.09 41.32,14.10 41.41,14.10 41.50,14.10 41.59,14.10 41.68,14.10 41.76,14.09 41.85,14.08 41.94,14.07 42.03,14.06 42.12,14.05 42.20,14.03 42.29,14.01 42.37,13.99 42.46,13.97 42.55,13.94 42.63,13.92 42.71,13.89 42.80,13.86 42.88,13.83 42.96,13.79 43.04,13.75 43.12,13.72 43.20,13.67 43.27,13.63 43.35,13.59 43.43,13.54 43.50,13.49 43.57,13.44 43.64,13.39 43.71,13.34 43.78,13.28 43.85,13.23 43.92,13.17 43.98,13.11 44.05,13.05 44.11,12.98 44.17,12.92 44.23,12.85 44.28,12.78 44.34,12.71 44.39,12.64 44.44,12.57 44.49,12.50 44.54,12.43 44.59,12.35 44.63,12.27 44.67,12.20 44.72,12.12 44.75,12.04 44.79,11.96 44.83,11.88 44.86,11.80 44.89,11.71 44.92,11.63 44.94,11.55 44.97,11.46 44.99,11.37 45.01,11.29 45.03,11.20 45.05,11.12 45.06,11.03 45.07,10.94 45.08,10.85 45.09,10.76 45.10,10.68 45.10,10.59 45.10,10.50 45.10,10.41 45.10,10.32ZM15.85,28.85 15.89,28.96 15.94,29.07 16.00,29.17 16.07,29.26 16.15,29.35 16.24,29.43 16.33,29.50 16.43,29.56 16.54,29.61 16.65,29.65 16.77,29.68 16.88,29.69 17.00,29.70 17.12,29.69 17.23,29.68 17.35,29.65 17.46,29.61 17.57,29.56 17.67,29.50 17.76,29.43 17.85,29.35 17.93,29.26 18.00,29.17 18.06,29.07 18.11,28.96 18.15,28.85 18.18,28.73 18.19,28.62 18.20,28.50 18.20,26.20 29.80,26.20 29.80,28.50 29.81,28.62 29.82,28.73 29.85,28.85 29.89,28.96 29.94,29.07 30.00,29.17 30.07,29.26 30.15,29.35 30.24,29.43 30.33,29.50 30.43,29.56 30.54,29.61 30.65,29.65 30.77,29.68 30.88,29.69 31.00,29.70 31.12,29.69 31.23,29.68 31.35,29.65 31.46,29.61 31.57,29.56 31.67,29.50 31.76,29.43 31.85,29.35 31.93,29.26 32.00,29.17 32.06,29.07 32.11,28.96 32.15,28.85 32.18,28.73 32.19,28.62 32.20,28.50 32.20,25.00 32.20,21.50 32.19,21.38 32.18,21.27 32.15,21.15 32.11,21.04 32.06,20.93 32.00,20.83 31.93,20.74 31.85,20.65 31.76,20.57 31.67,20.50 31.57,20.44 31.46,20.39 31.35,20.35 31.23,20.32 31.12,20.31 31.00,20.30 30.88,20.31 30.77,20.32 30.65,20.35 30.54,20.39 30.43,20.44 30.33,20.50 30.24,20.57 30.15,20.65 30.07,20.74 30.00,20.83 29.94,20.93 29.89,21.04 29.85,21.15 29.82,21.27 29.81,21.38 29.80,21.50 29.80,23.80 18.20,23.80 18.20,21.50 18.19,21.38 18.18,21.27 18.15,21.15 18.11,21.04 18.06,20.93 18.00,20.83 17.93,20.74 17.85,20.65 17.76,20.57 17.67,20.50 17.57,20.44 17.46,20.39 17.35,20.35 17.23,20.32 17.12,20.31 17.00,20.30 16.88,20.31 16.77,20.32 16.65,20.35 16.54,20.39 16.43,20.44 16.33,20.50 16.24,20.57 16.15,20.65 16.07,20.74 16.00,20.83 15.94,20.93 15.89,21.04 15.85,21.15 15.82,21.27 15.81,21.38 15.80,21.50 15.80,25.00 15.80,28.50 15.81,28.62 15.82,28.73ZM12.70,10.35 12.70,10.50 12.70,10.65 12.69,10.80 12.68,10.96 12.67,11.11 12.65,11.26 12.63,11.41 12.61,11.56 12.58,11.71 12.55,11.86 12.51,12.01 12.48,12.15 12.43,12.30 12.39,12.44 12.34,12.59 12.28,12.73 12.23,12.87 12.17,13.01 12.10,13.15 12.04,13.29 11.97,13.42 11.89,13.56 11.82,13.69 11.74,13.82 11.66,13.94 11.57,14.07 11.48,14.19 11.39,14.31 11.29,14.43 11.19,14.55 11.09,14.66 10.99,14.78 10.88,14.88 10.78,14.99 10.66,15.09 10.55,15.19 10.43,15.29 10.31,15.39 10.19,15.48 10.07,15.57 9.94,15.66 9.82,15.74 9.69,15.82 9.56,15.89 9.42,15.97 9.29,16.04 9.15,16.10 9.01,16.17 8.87,16.23 8.73,16.28 8.59,16.34 8.44,16.39 8.30,16.43 8.15,16.48 8.01,16.51 7.86,16.55 7.71,16.58 7.56,16.61 7.41,16.63 7.26,16.65 7.11,16.67 6.96,16.68 6.80,16.69 6.65,16.70 6.50,16.70 6.35,16.70 6.20,16.69 6.04,16.68 6.00,16.68 6.00,33.32 6.04,33.32 6.20,33.31 6.35,33.30 6.50,33.30 6.65,33.30 6.80,33.31 6.96,33.32 7.11,33.33 7.26,33.35 7.41,33.37 7.56,33.39 7.71,33.42 7.86,33.45 8.01,33.49 8.15,33.52 8.30,33.57 8.44,33.61 8.59,33.66 8.73,33.72 8.87,33.77 9.01,33.83 9.15,33.90 9.29,33.96 9.42,34.03 9.56,34.11 9.69,34.18 9.82,34.26 9.94,34.34 10.07,34.43 10.19,34.52 10.31,34.61 10.43,34.71 10.55,34.81 10.66,34.91 10.78,35.01 10.88,35.12 10.99,35.22 11.09,35.34 11.19,35.45 11.29,35.57 11.39,35.69 11.48,35.81 11.57,35.93 11.66,36.06 11.74,36.18 11.82,36.31 11.89,36.44 11.97,36.58 12.04,36.71 12.10,36.85 12.17,36.99 12.23,37.13 12.28,37.27 12.34,37.41 12.39,37.56 12.43,37.70 12.48,37.85 12.51,37.99 12.55,38.14 12.58,38.29 12.61,38.44 12.63,38.59 12.65,38.74 12.67,38.89 12.68,39.04 12.69,39.20 12.70,39.35 12.70,39.50 12.70,39.65 12.69,39.80 12.68,39.96 12.68,40.00 35.32,40.00 35.32,39.96 35.31,39.80 35.30,39.65 35.30,39.50 35.30,39.35 35.31,39.20 35.32,39.04 35.33,38.89 35.35,38.74 35.37,38.59 35.39,38.44 35.42,38.29 35.45,38.14 35.49,37.99 35.52,37.85 35.57,37.70 35.61,37.56 35.66,37.41 35.72,37.27 35.77,37.13 35.83,36.99 35.90,36.85 35.96,36.71 36.03,36.58 36.11,36.44 36.18,36.31 36.26,36.18 36.34,36.06 36.43,35.93 36.52,35.81 36.61,35.69 36.71,35.57 36.81,35.45 36.91,35.34 37.01,35.22 37.12,35.12 37.22,35.01 37.34,34.91 37.45,34.81 37.57,34.71 37.69,34.61 37.81,34.52 37.93,34.43 38.06,34.34 38.18,34.26 38.31,34.18 38.44,34.11 38.58,34.03 38.71,33.96 38.85,33.90 38.99,33.83 39.13,33.77 39.27,33.72 39.41,33.66 39.56,33.61 39.70,33.57 39.85,33.52 39.99,33.49 40.14,33.45 40.29,33.42 40.44,33.39 40.59,33.37 40.74,33.35 40.89,33.33 41.04,33.32 41.20,33.31 41.35,33.30 41.50,33.30 41.65,33.30 41.80,33.31 41.96,33.32 42.00,33.32 42.00,16.68 41.96,16.68 41.80,16.69 41.65,16.70 41.50,16.70 41.35,16.70 41.20,16.69 41.04,16.68 40.89,16.67 40.74,16.65 40.59,16.63 40.44,16.61 40.29,16.58 40.14,16.55 39.99,16.51 39.85,16.48 39.70,16.43 39.56,16.39 39.41,16.34 39.27,16.28 39.13,16.23 38.99,16.17 38.85,16.10 38.71,16.04 38.58,15.97 38.44,15.89 38.31,15.82 38.18,15.74 38.06,15.66 37.93,15.57 37.81,15.48 37.69,15.39 37.57,15.29 37.45,15.19 37.34,15.09 37.22,14.99 37.12,14.88 37.01,14.78 36.91,14.66 36.81,14.55 36.71,14.43 36.61,14.31 36.52,14.19 36.43,14.07 36.34,13.94 36.26,13.82 36.18,13.69 36.11,13.56 36.03,13.42 35.96,13.29 35.90,13.15 35.83,13.01 35.77,12.87 35.72,12.73 35.66,12.59 35.61,12.44 35.57,12.30 35.52,12.15 35.49,12.01 35.45,11.86 35.42,11.71 35.39,11.56 35.37,11.41 35.35,11.26 35.33,11.11 35.32,10.96 35.31,10.80 35.30,10.65 35.30,10.50 35.30,10.35 35.31,10.20 35.32,10.04 35.32,10.00 12.68,10.00 12.68,10.04 12.69,10.20ZM37.39,34.57 37.32,34.71 37.25,34.83 37.16,34.95 37.06,35.06 36.95,35.16 36.83,35.25 36.71,35.32 36.57,35.39 36.44,35.44 36.29,35.47 36.15,35.49 36.00,35.50 12.00,35.50 11.85,35.49 11.71,35.47 11.56,35.44 11.43,35.39 11.29,35.32 11.17,35.25 11.05,35.16 10.94,35.06 10.84,34.95 10.75,34.83 10.68,34.71 10.61,34.57 10.56,34.44 10.53,34.29 10.51,34.15 10.50,34.00 10.50,16.00 10.51,15.85 10.53,15.71 10.56,15.56 10.61,15.43 10.68,15.29 10.75,15.17 10.84,15.05 10.94,14.94 11.05,14.84 11.17,14.75 11.29,14.68 11.43,14.61 11.56,14.56 11.71,14.53 11.85,14.51 12.00,14.50 36.00,14.50 36.15,14.51 36.29,14.53 36.44,14.56 36.57,14.61 36.71,14.68 36.83,14.75 36.95,14.84 37.06,14.94 37.16,15.05 37.25,15.17 37.32,15.29 37.39,15.43 37.44,15.56 37.47,15.71 37.49,15.85 37.50,16.00 37.50,34.00 37.49,34.15 37.47,34.29 37.44,34.44ZM10.09,39.24 10.08,39.15 10.07,39.06 10.06,38.97 10.05,38.88 10.03,38.80 10.01,38.71 9.99,38.63 9.97,38.54 9.94,38.45 9.92,38.37 9.89,38.29 9.86,38.20 9.83,38.12 9.79,38.04 9.75,37.96 9.72,37.88 9.67,37.80 9.63,37.73 9.59,37.65 9.54,37.57 9.49,37.50 9.44,37.43 9.39,37.36 9.34,37.29 9.28,37.22 9.23,37.15 9.17,37.08 9.11,37.02 9.05,36.95 8.98,36.89 8.92,36.83 8.85,36.77 8.78,36.72 8.71,36.66 8.64,36.61 8.57,36.56 8.50,36.51 8.43,36.46 8.35,36.41 8.27,36.37 8.20,36.33 8.12,36.28 8.04,36.25 7.96,36.21 7.88,36.17 7.80,36.14 7.71,36.11 7.63,36.08 7.55,36.06 7.46,36.03 7.37,36.01 7.29,35.99 7.20,35.97 7.12,35.95 7.03,35.94 6.94,35.93 6.85,35.92 6.76,35.91 6.68,35.90 6.59,35.90 6.50,35.90 6.41,35.90 6.32,35.90 6.24,35.91 6.15,35.92 6.06,35.93 5.97,35.94 5.88,35.95 5.80,35.97 5.71,35.99 5.63,36.01 5.54,36.03 5.45,36.06 5.37,36.08 5.29,36.11 5.20,36.14 5.12,36.17 5.04,36.21 4.96,36.25 4.88,36.28 4.80,36.33 4.73,36.37 4.65,36.41 4.57,36.46 4.50,36.51 4.43,36.56 4.36,36.61 4.29,36.66 4.22,36.72 4.15,36.77 4.08,36.83 4.02,36.89 3.95,36.95 3.89,37.02 3.83,37.08 3.77,37.15 3.72,37.22 3.66,37.29 3.61,37.36 3.56,37.43 3.51,37.50 3.46,37.57 3.41,37.65 3.37,37.73 3.33,37.80 3.28,37.88 3.25,37.96 3.21,38.04 3.17,38.12 3.14,38.20 3.11,38.29 3.08,38.37 3.06,38.45 3.03,38.54 3.01,38.63 2.99,38.71 2.97,38.80 2.95,38.88 2.94,38.97 2.93,39.06 2.92,39.15 2.91,39.24 2.90,39.32 2.90,39.41 2.90,39.50 2.90,39.59 2.90,39.68 2.91,39.76 2.92,39.85 2.93,39.94 2.94,40.03 2.95,40.12 2.97,40.20 2.99,40.29 3.01,40.37 3.03,40.46 3.06,40.55 3.08,40.63 3.11,40.71 3.14,40.80 3.17,40.88 3.21,40.96 3.25,41.04 3.28,41.12 3.33,41.20 3.37,41.27 3.41,41.35 3.46,41.43 3.51,41.50 3.56,41.57 3.61,41.64 3.66,41.71 3.72,41.78 3.77,41.85 3.83,41.92 3.89,41.98 3.95,42.05 4.02,42.11 4.08,42.17 4.15,42.23 4.22,42.28 4.29,42.34 4.36,42.39 4.43,42.44 4.50,42.49 4.57,42.54 4.65,42.59 4.73,42.63 4.80,42.67 4.88,42.72 4.96,42.75 5.04,42.79 5.12,42.83 5.20,42.86 5.29,42.89 5.37,42.92 5.45,42.94 5.54,42.97 5.63,42.99 5.71,43.01 5.80,43.03 5.88,43.05 5.97,43.06 6.06,43.07 6.15,43.08 6.24,43.09 6.32,43.10 6.41,43.10 6.50,43.10 6.59,43.10 6.68,43.10 6.76,43.09 6.85,43.08 6.94,43.07 7.03,43.06 7.12,43.05 7.20,43.03 7.29,43.01 7.37,42.99 7.46,42.97 7.55,42.94 7.63,42.92 7.71,42.89 7.80,42.86 7.88,42.83 7.96,42.79 8.04,42.75 8.12,42.72 8.20,42.67 8.27,42.63 8.35,42.59 8.43,42.54 8.50,42.49 8.57,42.44 8.64,42.39 8.71,42.34 8.78,42.28 8.85,42.23 8.92,42.17 8.98,42.11 9.05,42.05 9.11,41.98 9.17,41.92 9.23,41.85 9.28,41.78 9.34,41.71 9.39,41.64 9.44,41.57 9.49,41.50 9.54,41.43 9.59,41.35 9.63,41.27 9.67,41.20 9.72,41.12 9.75,41.04 9.79,40.96 9.83,40.88 9.86,40.80 9.89,40.71 9.92,40.63 9.94,40.55 9.97,40.46 9.99,40.37 10.01,40.29 10.03,40.20 10.05,40.12 10.06,40.03 10.07,39.94 10.08,39.85 10.09,39.76 10.10,39.68 10.10,39.59 10.10,39.50 10.10,39.41 10.10,39.32ZM45.09,39.24 45.08,39.15 45.07,39.06 45.06,38.97 45.05,38.88 45.03,38.80 45.01,38.71 44.99,38.63 44.97,38.54 44.94,38.45 44.92,38.37 44.89,38.29 44.86,38.20 44.83,38.12 44.79,38.04 44.75,37.96 44.72,37.88 44.67,37.80 44.63,37.73 44.59,37.65 44.54,37.57 44.49,37.50 44.44,37.43 44.39,37.36 44.34,37.29 44.28,37.22 44.23,37.15 44.17,37.08 44.11,37.02 44.05,36.95 43.98,36.89 43.92,36.83 43.85,36.77 43.78,36.72 43.71,36.66 43.64,36.61 43.57,36.56 43.50,36.51 43.43,36.46 43.35,36.41 43.27,36.37 43.20,36.33 43.12,36.28 43.04,36.25 42.96,36.21 42.88,36.17 42.80,36.14 42.71,36.11 42.63,36.08 42.55,36.06 42.46,36.03 42.37,36.01 42.29,35.99 42.20,35.97 42.12,35.95 42.03,35.94 41.94,35.93 41.85,35.92 41.76,35.91 41.68,35.90 41.59,35.90 41.50,35.90 41.41,35.90 41.32,35.90 41.24,35.91 41.15,35.92 41.06,35.93 40.97,35.94 40.88,35.95 40.80,35.97 40.71,35.99 40.63,36.01 40.54,36.03 40.45,36.06 40.37,36.08 40.29,36.11 40.20,36.14 40.12,36.17 40.04,36.21 39.96,36.25 39.88,36.28 39.80,36.33 39.73,36.37 39.65,36.41 39.57,36.46 39.50,36.51 39.43,36.56 39.36,36.61 39.29,36.66 39.22,36.72 39.15,36.77 39.08,36.83 39.02,36.89 38.95,36.95 38.89,37.02 38.83,37.08 38.77,37.15 38.72,37.22 38.66,37.29 38.61,37.36 38.56,37.43 38.51,37.50 38.46,37.57 38.41,37.65 38.37,37.73 38.33,37.80 38.28,37.88 38.25,37.96 38.21,38.04 38.17,38.12 38.14,38.20 38.11,38.29 38.08,38.37 38.06,38.45 38.03,38.54 38.01,38.63 37.99,38.71 37.97,38.80 37.95,38.88 37.94,38.97 37.93,39.06 37.92,39.15 37.91,39.24 37.90,39.32 37.90,39.41 37.90,39.50 37.90,39.59 37.90,39.68 37.91,39.76 37.92,39.85 37.93,39.94 37.94,40.03 37.95,40.12 37.97,40.20 37.99,40.29 38.01,40.37 38.03,40.46 38.06,40.55 38.08,40.63 38.11,40.71 38.14,40.80 38.17,40.88 38.21,40.96 38.25,41.04 38.28,41.12 38.33,41.20 38.37,41.27 38.41,41.35 38.46,41.43 38.51,41.50 38.56,41.57 38.61,41.64 38.66,41.71 38.72,41.78 38.77,41.85 38.83,41.92 38.89,41.98 38.95,42.05 39.02,42.11 39.08,42.17 39.15,42.23 39.22,42.28 39.29,42.34 39.36,42.39 39.43,42.44 39.50,42.49 39.57,42.54 39.65,42.59 39.73,42.63 39.80,42.67 39.88,42.72 39.96,42.75 40.04,42.79 40.12,42.83 40.20,42.86 40.29,42.89 40.37,42.92 40.45,42.94 40.54,42.97 40.63,42.99 40.71,43.01 40.80,43.03 40.88,43.05 40.97,43.06 41.06,43.07 41.15,43.08 41.24,43.09 41.32,43.10 41.41,43.10 41.50,43.10 41.59,43.10 41.68,43.10 41.76,43.09 41.85,43.08 41.94,43.07 42.03,43.06 42.12,43.05 42.20,43.03 42.29,43.01 42.37,42.99 42.46,42.97 42.55,42.94 42.63,42.92 42.71,42.89 42.80,42.86 42.88,42.83 42.96,42.79 43.04,42.75 43.12,42.72 43.20,42.67 43.27,42.63 43.35,42.59 43.43,42.54 43.50,42.49 43.57,42.44 43.64,42.39 43.71,42.34 43.78,42.28 43.85,42.23 43.92,42.17 43.98,42.11 44.05,42.05 44.11,41.98 44.17,41.92 44.23,41.85 44.28,41.78 44.34,41.71 44.39,41.64 44.44,41.57 44.49,41.50 44.54,41.43 44.59,41.35 44.63,41.27 44.67,41.20 44.72,41.12 44.75,41.04 44.79,40.96 44.83,40.88 44.86,40.80 44.89,40.71 44.92,40.63 44.94,40.55 44.97,40.46 44.99,40.37 45.01,40.29 45.03,40.20 45.05,40.12 45.06,40.03 45.07,39.94 45.08,39.85 45.09,39.76 45.10,39.68 45.10,39.59 45.10,39.50 45.10,39.41 45.10,39.32Z"/></svg>