<svg xmlns="http://www.w3.org/2000/svg" viewBox="0 0 48 48"><path fill="#006B3A" fill-rule="evenodd" d="M42.92,7.71 42.95,7.82 42.98,7.92 43.03,8.02 43.09,8.11 43.15,8.20 43.22,8.28 43.30,8.35 43.39,8.41 43.48,8.47 43.58,8.52 43.68,8.55 43.79,8.58 43.89,8.59 44.00,8.60 44.11,8.59 44.21,8.58 44.32,8.55 44.42,8.52 44.52,8.47 44.61,8.41 44.70,8.35 44.78,8.28 44.85,8.20 44.91,8.11 44.97,8.02 45.02,7.92 45.05,7.82 45.08,7.71 45.09,7.61 45.10,7.50 45.10,4.00 45.09,3.89 45.08,3.79 45.05,3.68 45.02,3.58 44.97,3.48 44.91,3.39 44.85,3.30 44.78,3.22 44.70,3.15 44.61,3.09 44.52,3.03 44.42,2.98 44.32,2.95 44.21,2.92 44.11,2.91 44.00,2.90 43.89,2.91 43.79,2.92 43.68,2.95 43.58,2.98 43.48,3.03 43.39,3.09 43.30,3.15 43.22,3.22 43.15,3.30 43.09,3.39 43.03,3.48 42.98,3.58 42.95,3.68 42.92,3.79 42.91,3.89 42.90,4.00 42.90,7.50 42.91,7.61ZM39.30,9.85 39.39,9.91 39.48,9.97 39.58,10.02 39.68,10.05 39.78,10.08 39.89,10.09 40.00,10.10 40.11,10.09 40.21,10.08 40.32,10.05 40.42,10.02 40.52,9.97 40.61,9.92 40.70,9.85 40.78,9.78 40.85,9.70 40.91,9.61 40.97,9.52 41.02,9.42 41.05,9.32 41.08,9.22 41.09,9.11 41.10,9.00 41.09,8.89 41.08,8.79 41.05,8.68 41.02,8.58 40.97,8.48 40.92,8.39 38.92,5.39 38.85,5.30 38.78,5.22 38.70,5.15 38.61,5.09 38.52,5.03 38.42,4.98 38.32,4.95 38.22,4.92 38.11,4.91 38.00,4.90 37.89,4.91 37.79,4.92 37.68,4.95 37.58,4.98 37.48,5.03 37.39,5.08 37.30,5.15 37.22,5.22 37.15,5.30 37.09,5.39 37.03,5.48 36.98,5.58 36.95,5.68 36.92,5.78 36.91,5.89 36.90,6.00 36.91,6.11 36.92,6.21 36.95,6.32 36.98,6.42 37.03,6.52 37.08,6.61 39.08,9.61 39.15,9.70 39.22,9.78ZM45.99,11.78 45.99,11.71 45.98,11.63 45.97,11.56 45.96,11.49 45.94,11.41 45.93,11.34 45.91,11.27 45.89,11.20 45.87,11.13 45.85,11.06 45.82,10.99 45.80,10.92 45.77,10.85 45.74,10.78 45.71,10.72 45.68,10.65 45.65,10.59 45.61,10.52 45.57,10.46 45.53,10.40 45.49,10.33 45.45,10.27 45.41,10.21 45.37,10.15 45.32,10.10 45.27,10.04 45.22,9.99 45.17,9.93 45.12,9.88 45.07,9.83 45.01,9.78 44.96,9.73 44.90,9.68 44.85,9.63 44.79,9.59 44.73,9.55 44.67,9.51 44.60,9.47 44.54,9.43 44.48,9.39 44.41,9.35 44.35,9.32 44.28,9.29 44.22,9.26 44.15,9.23 44.08,9.20 44.01,9.18 43.94,9.15 43.87,9.13 43.80,9.11 43.73,9.09 43.66,9.07 43.59,9.06 43.51,9.04 43.44,9.03 43.37,9.02 43.29,9.01 43.22,9.01 43.15,9.00 43.07,9.00 43.00,9.00 42.93,9.00 42.85,9.00 42.78,9.01 42.71,9.01 42.63,9.02 42.56,9.03 42.49,9.04 42.41,9.06 42.34,9.07 42.27,9.09 42.20,9.11 42.13,9.13 42.06,9.15 41.99,9.18 41.92,9.20 41.85,9.23 41.78,9.26 41.72,9.29 41.65,9.32 41.59,9.35 41.52,9.39 41.46,9.43 41.40,9.47 41.33,9.51 41.27,9.55 41.21,9.59 41.15,9.63 41.10,9.68 41.04,9.73 40.99,9.78 40.93,9.83 40.88,9.88 40.83,9.93 40.78,9.99 40.73,10.04 40.68,10.10 40.63,10.15 40.59,10.21 40.55,10.27 40.51,10.33 40.47,10.40 40.43,10.46 40.39,10.52 40.35,10.59 40.32,10.65 40.29,10.72 40.26,10.78 40.23,10.85 40.20,10.92 40.18,10.99 40.15,11.06 40.13,11.13 40.11,11.20 40.09,11.27 40.07,11.34 40.06,11.41 40.04,11.49 40.03,11.56 40.02,11.63 40.01,11.71 40.01,11.78 40.00,11.85 40.00,11.93 40.00,12.00 40.00,12.07 40.00,12.15 40.01,12.22 40.01,12.29 40.02,12.37 40.03,12.44 40.04,12.51 40.06,12.59 40.07,12.66 40.09,12.73 40.11,12.80 40.13,12.87 40.15,12.94 40.17,13.00 29.93,23.24 29.92,23.22 29.83,22.84 29.70,22.47 29.53,22.11 29.33,21.78 29.09,21.46 28.83,21.17 28.54,20.91 28.22,20.67 27.89,20.47 27.53,20.30 27.16,20.17 26.78,20.08 26.39,20.02 26.00,20.00 18.47,20.00 18.54,19.92 18.64,19.81 18.73,19.69 18.82,19.57 18.91,19.45 18.99,19.33 19.07,19.21 19.15,19.08 19.22,18.96 19.29,18.83 19.36,18.70 19.42,18.57 19.49,18.43 19.54,18.30 19.60,18.16 19.65,18.02 19.70,17.88 19.74,17.74 19.78,17.60 19.82,17.46 19.85,17.31 19.88,17.17 19.91,17.03 19.94,16.88 19.95,16.73 19.97,16.59 19.98,16.44 19.99,16.29 20.00,16.15 20.00,16.00 20.00,15.85 19.99,15.71 19.98,15.56 19.97,15.41 19.95,15.27 19.94,15.12 19.91,14.97 19.88,14.83 19.85,14.69 19.82,14.54 19.78,14.40 19.74,14.26 19.70,14.12 19.65,13.98 19.60,13.84 19.54,13.70 19.49,13.57 19.42,13.43 19.36,13.30 19.29,13.17 19.22,13.04 19.15,12.92 19.07,12.79 18.99,12.67 18.91,12.55 18.82,12.43 18.73,12.31 18.64,12.19 18.54,12.08 18.45,11.97 18.35,11.86 18.24,11.76 18.14,11.65 18.03,11.55 17.92,11.46 17.81,11.36 17.69,11.27 17.57,11.18 17.45,11.09 17.33,11.01 17.21,10.93 17.08,10.85 16.96,10.78 16.83,10.71 16.70,10.64 16.57,10.58 16.43,10.51 16.30,10.46 16.16,10.40 16.02,10.35 15.88,10.30 15.74,10.26 15.60,10.22 15.46,10.18 15.31,10.15 15.17,10.12 15.03,10.09 14.88,10.06 14.73,10.05 14.59,10.03 14.44,10.02 14.29,10.01 14.15,10.00 14.00,10.00 13.85,10.00 13.71,10.01 13.56,10.02 13.41,10.03 13.27,10.05 13.12,10.06 12.97,10.09 12.83,10.12 12.69,10.15 12.54,10.18 12.40,10.22 12.26,10.26 12.12,10.30 11.98,10.35 11.84,10.40 11.70,10.46 11.57,10.51 11.43,10.58 11.30,10.64 11.17,10.71 11.04,10.78 10.92,10.85 10.79,10.93 10.67,11.01 10.55,11.09 10.43,11.18 10.31,11.27 10.19,11.36 10.08,11.46 9.97,11.55 9.86,11.65 9.76,11.76 9.65,11.86 9.55,11.97 9.46,12.08 9.36,12.19 9.27,12.31 9.18,12.43 9.09,12.55 9.01,12.67 8.93,12.79 8.85,12.92 8.78,13.04 8.71,13.17 8.64,13.30 8.58,13.43 8.51,13.57 8.46,13.70 8.40,13.84 8.35,13.98 8.30,14.12 8.26,14.26 8.22,14.40 8.18,14.54 8.15,14.69 8.12,14.83 8.09,14.97 8.06,15.12 8.05,15.27 8.03,15.41 8.02,15.56 8.01,15.71 8.00,15.85 8.00,16.00 8.00,16.15 8.01,16.29 8.02,16.44 8.03,16.59 8.05,16.73 8.06,16.88 8.09,17.03 8.12,17.17 8.15,17.31 8.18,17.46 8.22,17.60 8.26,17.74 8.30,17.88 8.35,18.02 8.40,18.16 8.46,18.30 8.51,18.43 8.58,18.57 8.64,18.70 8.71,18.83 8.78,18.96 8.85,19.08 8.93,19.21 9.01,19.33 9.09,19.45 9.18,19.57 9.27,19.69 9.36,19.81 9.46,19.92 9.55,20.03 9.22,20.08 8.84,20.17 8.47,20.30 8.11,20.47 7.78,20.67 7.46,20.91 7.17,21.17 6.91,21.46 6.67,21.78 6.47,22.11 6.30,22.47 6.17,22.84 6.08,23.22 6.02,23.61 6.00,24.00 6.00,36.00 6.02,36.39 6.08,36.78 6.17,37.16 6.30,37.53 6.47,37.89 6.67,38.22 6.91,38.54 7.17,38.83 7.46,39.09 7.78,39.33 8.11,39.53 8.47,39.70 8.84,39.83 9.22,39.92 9.61,39.98 10.00,40.00 26.00,40.00 26.39,39.98 26.78,39.92 27.16,39.83 27.53,39.70 27.89,39.53 28.22,39.33 28.54,39.09 28.83,38.83 29.09,38.54 29.33,38.22 29.53,37.89 29.70,37.53 29.83,37.16 29.92,36.78 29.98,36.39 30.00,36.00 30.00,28.00 30.20,27.99 30.39,27.96 30.58,27.91 30.77,27.85 30.94,27.76 31.11,27.66 31.27,27.55 31.41,27.41 43.41,15.41 43.55,15.27 43.66,15.11 43.76,14.94 43.79,14.89 43.80,14.89 43.87,14.87 43.94,14.85 44.01,14.82 44.08,14.80 44.15,14.77 44.22,14.74 44.28,14.71 44.35,14.68 44.41,14.65 44.48,14.61 44.54,14.57 44.60,14.53 44.67,14.49 44.73,14.45 44.79,14.41 44.85,14.37 44.90,14.32 44.96,14.27 45.01,14.22 45.07,14.17 45.12,14.12 45.17,14.07 45.22,14.01 45.27,13.96 45.32,13.90 45.37,13.85 45.41,13.79 45.45,13.73 45.49,13.67 45.53,13.60 45.57,13.54 45.61,13.48 45.65,13.41 45.68,13.35 45.71,13.28 45.74,13.22 45.77,13.15 45.80,13.08 45.82,13.01 45.85,12.94 45.87,12.87 45.89,12.80 45.91,12.73 45.93,12.66 45.94,12.59 45.96,12.51 45.97,12.44 45.98,12.37 45.99,12.29 45.99,12.22 46.00,12.15 46.00,12.07 46.00,12.00 46.00,11.93 46.00,11.85ZM17.19,16.24 17.18,16.31 17.18,16.39 17.17,16.47 17.15,16.55 17.14,16.62 17.12,16.70 17.10,16.78 17.08,16.85 17.06,16.93 17.04,17.00 17.01,17.08 16.99,17.15 16.96,17.22 16.93,17.30 16.89,17.37 16.86,17.44 16.82,17.51 16.78,17.58 16.74,17.65 16.70,17.71 16.66,17.78 16.62,17.84 16.57,17.91 16.52,17.97 16.47,18.03 16.42,18.09 16.37,18.15 16.32,18.21 16.26,18.26 16.21,18.32 16.15,18.37 16.09,18.42 16.03,18.47 15.97,18.52 15.91,18.57 15.84,18.62 15.78,18.66 15.71,18.70 15.65,18.74 15.58,18.78 15.51,18.82 15.44,18.86 15.37,18.89 15.30,18.93 15.22,18.96 15.15,18.99 15.08,19.01 15.00,19.04 14.93,19.06 14.85,19.08 14.78,19.10 14.70,19.12 14.62,19.14 14.55,19.15 14.47,19.17 14.39,19.18 14.31,19.18 14.24,19.19 14.16,19.20 14.08,19.20 14.00,19.20 13.92,19.20 13.84,19.20 13.76,19.19 13.69,19.18 13.61,19.18 13.53,19.17 13.45,19.15 13.38,19.14 13.30,19.12 13.22,19.10 13.15,19.08 13.07,19.06 13.00,19.04 12.92,19.01 12.85,18.99 12.78,18.96 12.70,18.93 12.63,18.89 12.56,18.86 12.49,18.82 12.42,18.78 12.35,18.74 12.29,18.70 12.22,18.66 12.16,18.62 12.09,18.57 12.03,18.52 11.97,18.47 11.91,18.42 11.85,18.37 11.79,18.32 11.74,18.26 11.68,18.21 11.63,18.15 11.58,18.09 11.53,18.03 11.48,17.97 11.43,17.91 11.38,17.84 11.34,17.78 11.30,17.71 11.26,17.65 11.22,17.58 11.18,17.51 11.14,17.44 11.11,17.37 11.07,17.30 11.04,17.22 11.01,17.15 10.99,17.08 10.96,17.00 10.94,16.93 10.92,16.85 10.90,16.78 10.88,16.70 10.86,16.62 10.85,16.55 10.83,16.47 10.82,16.39 10.82,16.31 10.81,16.24 10.80,16.16 10.80,16.08 10.80,16.00 10.80,15.92 10.80,15.84 10.81,15.76 10.82,15.69 10.82,15.61 10.83,15.53 10.85,15.45 10.86,15.38 10.88,15.30 10.90,15.22 10.92,15.15 10.94,15.07 10.96,15.00 10.99,14.92 11.01,14.85 11.04,14.78 11.07,14.70 11.11,14.63 11.14,14.56 11.18,14.49 11.22,14.42 11.26,14.35 11.30,14.29 11.34,14.22 11.38,14.16 11.43,14.09 11.48,14.03 11.53,13.97 11.58,13.91 11.63,13.85 11.68,13.79 11.74,13.74 11.79,13.68 11.85,13.63 11.91,13.58 11.97,13.53 12.03,13.48 12.09,13.43 12.16,13.38 12.22,13.34 12.29,13.30 12.35,13.26 12.42,13.22 12.49,13.18 12.56,13.14 12.63,13.11 12.70,13.07 12.78,13.04 12.85,13.01 12.92,12.99 13.00,12.96 13.07,12.94 13.15,12.92 13.22,12.90 13.30,12.88 13.38,12.86 13.45,12.85 13.53,12.83 13.61,12.82 13.69,12.82 13.76,12.81 13.84,12.80 13.92,12.80 14.00,12.80 14.08,12.80 14.16,12.80 14.24,12.81 14.31,12.82 14.39,12.82 14.47,12.83 14.55,12.85 14.62,12.86 14.70,12.88 14.78,12.90 14.85,12.92 14.93,12.94 15.00,12.96 15.08,12.99 15.15,13.01 15.22,13.04 15.30,13.07 15.37,13.11 15.44,13.14 15.51,13.18 15.58,13.22 15.65,13.26 15.71,13.30 15.78,13.34 15.84,13.38 15.91,13.43 15.97,13.48 16.03,13.53 16.09,13.58 16.15,13.63 16.21,13.68 16.26,13.74 16.32,13.79 16.37,13.85 16.42,13.91 16.47,13.97 16.52,14.03 16.57,14.09 16.62,14.16 16.66,14.22 16.70,14.29 16.74,14.35 16.78,14.42 16.82,14.49 16.86,14.56 16.89,14.63 16.93,14.70 16.96,14.78 16.99,14.85 17.01,14.92 17.04,15.00 17.06,15.07 17.08,15.15 17.10,15.22 17.12,15.30 17.14,15.38 17.15,15.45 17.17,15.53 17.18,15.61 17.18,15.69 17.19,15.76 17.20,15.84 17.20,15.92 17.20,16.00 17.20,16.08 17.20,16.16ZM25.91,26.59 25.85,26.77 25.77,26.95 25.66,27.12 25.55,27.27 25.42,27.42 25.27,27.55 25.12,27.66 24.95,27.77 24.77,27.85 24.59,27.91 24.40,27.96 24.21,27.99 24.01,28.00 11.99,28.00 11.79,27.99 11.60,27.96 11.41,27.91 11.23,27.85 11.05,27.77 10.88,27.66 10.73,27.55 10.58,27.42 10.45,27.27 10.34,27.12 10.23,26.95 10.15,26.77 10.09,26.59 10.04,26.40 10.01,26.21 10.00,26.01 10.00,25.99 10.01,25.79 10.04,25.60 10.09,25.41 10.15,25.23 10.23,25.05 10.34,24.88 10.45,24.73 10.58,24.58 10.73,24.45 10.88,24.34 11.05,24.23 11.23,24.15 11.41,24.09 11.60,24.04 11.79,24.01 11.99,24.00 24.01,24.00 24.21,24.01 24.40,24.04 24.59,24.09 24.77,24.15 24.95,24.23 25.12,24.34 25.27,24.45 25.42,24.58 25.55,24.73 25.66,24.88 25.77,25.05 25.85,25.23 25.91,25.41 25.96,25.60 25.99,25.79 26.00,25.99 26.00,26.01 25.99,26.21 25.96,26.40Z"/></svg>